<?xml version="1.0" encoding="UTF-8"?>
<svg id="Layer_2" data-name="Layer 2" xmlns="http://www.w3.org/2000/svg" xmlns:xlink="http://www.w3.org/1999/xlink" viewBox="0 0 1893.79 2017.53">
  <defs>
    <style>
      .cls-1 {
        stroke-width: 17.28px;
      }

      .cls-1, .cls-2, .cls-3, .cls-4, .cls-5, .cls-6, .cls-7, .cls-8, .cls-9, .cls-10, .cls-11, .cls-12, .cls-13, .cls-14, .cls-15, .cls-16 {
        stroke-miterlimit: 10;
      }

      .cls-1, .cls-3, .cls-5, .cls-6, .cls-8, .cls-9, .cls-12, .cls-15 {
        fill: #d00029;
        stroke: #000;
      }

      .cls-2 {
        stroke-width: 18.73px;
      }

      .cls-2, .cls-4, .cls-7, .cls-10, .cls-17, .cls-11, .cls-13, .cls-14, .cls-16 {
        fill: none;
      }

      .cls-2, .cls-4, .cls-7, .cls-10, .cls-11, .cls-13, .cls-14, .cls-16 {
        stroke: #fff;
        stroke-linecap: round;
      }

      .cls-3 {
        stroke-width: 33.48px;
      }

      .cls-18 {
        fill: #fff;
      }

      .cls-4 {
        stroke-width: 27.02px;
      }

      .cls-5 {
        stroke-width: 15.61px;
      }

      .cls-19 {
        clip-path: url(#clippath-2);
      }

      .cls-6 {
        stroke-width: 22.51px;
      }

      .cls-20 {
        clip-path: url(#clippath-6);
      }

      .cls-7 {
        stroke-width: 12.55px;
      }

      .cls-21 {
        clip-path: url(#clippath-7);
      }

      .cls-22 {
        clip-path: url(#clippath-1);
      }

      .cls-23 {
        clip-path: url(#clippath-4);
      }

      .cls-8 {
        stroke-width: 10.14px;
      }

      .cls-9 {
        stroke-width: 11.61px;
      }

      .cls-24 {
        clip-path: url(#clippath);
      }

      .cls-10 {
        stroke-width: 40.17px;
      }

      .cls-25 {
        clip-path: url(#clippath-3);
      }

      .cls-11 {
        stroke-width: 22.36px;
      }

      .cls-12 {
        stroke-width: 18.63px;
      }

      .cls-13 {
        stroke-width: 13.93px;
      }

      .cls-14 {
        stroke-width: 12.16px;
      }

      .cls-26 {
        clip-path: url(#clippath-5);
      }

      .cls-15 {
        stroke-width: 10.46px;
      }

      .cls-16 {
        stroke-width: 20.74px;
      }
    </style>
    <clipPath id="clippath">
      <path id="CM" class="cls-17" d="m1323.95,133.39c-84.76,36.67-192.84,97.36-389.59,97.36s-304.83-60.7-389.59-97.36c84.76-36.67,192.84-115.38,389.59-115.38s304.83,78.71,389.59,115.38Z"/>
    </clipPath>
    <clipPath id="clippath-1">
      <path id="CM-2" data-name="CM" class="cls-17" d="m1439.76,979.85c-126.04,54.53-286.76,144.78-579.34,144.78s-453.3-90.26-579.34-144.78c126.04-54.53,286.76-171.57,579.34-171.57s453.3,117.04,579.34,171.57Z"/>
    </clipPath>
    <clipPath id="clippath-2">
      <path id="CM-3" data-name="CM" class="cls-17" d="m1579.29,1754.77c-70.16,30.35-159.61,80.59-322.47,80.59s-252.31-50.24-322.47-80.59c70.16-30.35,159.61-95.5,322.47-95.5s252.31,65.15,322.47,95.5Z"/>
    </clipPath>
    <clipPath id="clippath-3">
      <path id="CM-4" data-name="CM" class="cls-17" d="m745.62,1958.05c-43.7,18.9-99.42,50.2-200.86,50.2s-157.16-31.29-200.86-50.2c43.7-18.9,99.42-59.48,200.86-59.48s157.16,40.58,200.86,59.48Z"/>
    </clipPath>
    <clipPath id="clippath-4">
      <path id="CM-5" data-name="CM" class="cls-17" d="m1673.93,1354.88c-38.16,16.51-86.81,43.83-175.39,43.83s-137.23-27.32-175.39-43.83c38.16-16.51,86.81-51.94,175.39-51.94s137.23,35.43,175.39,51.94Z"/>
    </clipPath>
    <clipPath id="clippath-5">
      <path id="CM-6" data-name="CM" class="cls-17" d="m1862.33,578.66c-58.78,25.43-133.73,67.52-270.17,67.52s-211.39-42.09-270.17-67.52c58.78-25.43,133.73-80.01,270.17-80.01s211.39,54.58,270.17,80.01Z"/>
    </clipPath>
    <clipPath id="clippath-6">
      <path id="CM-7" data-name="CM" class="cls-17" d="m654.21,1475.26c-65.07,28.15-148.04,74.75-299.1,74.75s-234.02-46.6-299.1-74.75c65.07-28.15,148.04-88.58,299.1-88.58s234.02,60.42,299.1,88.58Z"/>
    </clipPath>
    <clipPath id="clippath-7">
      <path id="CM-8" data-name="CM" class="cls-17" d="m382.96,459.6c-39.37,17.03-89.56,45.22-180.95,45.22s-141.58-28.19-180.95-45.22c39.37-17.03,89.56-53.59,180.95-53.59s141.58,36.56,180.95,53.59Z"/>
    </clipPath>
  </defs>
  <g id="_404" data-name="404">
    <g id="Eye">
      <g class="cls-24">
        <path class="cls-18" d="m1323.95,133.39c-84.76,36.67-192.84,97.36-389.59,97.36s-304.83-60.7-389.59-97.36c84.76-36.67,192.84-115.38,389.59-115.38s304.83,78.71,389.59,115.38Z"/>
        <circle class="cls-6" cx="934.36" cy="55.57" r="157.37"/>
        <path class="cls-4" d="m846.36,112.19c16.57,31.68,49.75,53.29,87.99,53.29s71.42-21.61,87.99-53.29"/>
        <circle cx="934.36" cy="55.57" r="74.46"/>
      </g>
      <path d="m934.36,18.01c196.75,0,304.83,78.71,389.59,115.38-84.76,36.67-192.84,97.36-389.59,97.36s-304.83-60.7-389.59-97.36c84.76-36.67,192.84-115.38,389.59-115.38m0-18.01c-72.01,0-138.67,10.17-203.79,31.09-55.96,17.98-100.88,40.58-140.51,60.52-18.62,9.37-36.2,18.21-52.44,25.24l-38.21,16.53,38.21,16.53c9.89,4.28,20.08,8.88,30.88,13.75,41.09,18.55,87.67,39.58,146.83,56.28,68.69,19.39,140.33,28.81,219.03,28.81s150.34-9.42,219.03-28.81c59.17-16.7,105.74-37.73,146.83-56.28,10.79-4.87,20.99-9.48,30.88-13.75l38.21-16.53-38.21-16.53c-16.24-7.03-33.82-15.87-52.44-25.24-39.63-19.94-84.55-42.54-140.51-60.52C1073.03,10.17,1006.37,0,934.36,0h0Z"/>
    </g>
    <g id="Eye-2" data-name="Eye">
      <g class="cls-22">
        <path class="cls-18" d="m1439.76,979.85c-126.04,54.53-286.76,144.78-579.34,144.78s-453.3-90.26-579.34-144.78c126.04-54.53,286.76-171.57,579.34-171.57s453.3,117.04,579.34,171.57Z"/>
        <circle class="cls-3" cx="860.42" cy="864.13" r="234.01"/>
        <path class="cls-10" d="m729.57,948.33c24.64,47.11,73.99,79.25,130.85,79.25s106.21-32.14,130.85-79.25"/>
        <circle cx="860.42" cy="864.13" r="110.72"/>
      </g>
      <path d="m860.42,808.28c292.58,0,453.3,117.04,579.34,171.57-126.04,54.53-286.76,144.79-579.34,144.79s-453.3-90.26-579.34-144.79c126.04-54.53,286.76-171.57,579.34-171.57m0-26.78c-107.08,0-206.21,15.12-303.05,46.24-83.21,26.74-150.01,60.35-208.95,90-27.68,13.93-53.83,27.08-77.98,37.53l-56.82,24.58,56.82,24.58c14.7,6.36,29.87,13.21,45.92,20.45,61.11,27.59,130.36,58.85,218.35,83.69,102.14,28.83,208.68,42.85,325.7,42.85s223.57-14.02,325.7-42.85c87.99-24.84,157.24-56.1,218.35-83.69,16.05-7.25,31.22-14.09,45.92-20.45l56.82-24.58-56.82-24.58c-24.15-10.45-50.3-23.6-77.98-37.53-58.93-29.65-125.73-63.26-208.95-90-96.84-31.11-195.96-46.24-303.05-46.24h0Z"/>
    </g>
    <g id="Eye-3" data-name="Eye">
      <g class="cls-19">
        <path class="cls-18" d="m1579.29,1754.77c-70.16,30.35-159.61,80.59-322.47,80.59s-252.31-50.24-322.47-80.59c70.16-30.35,159.61-95.5,322.47-95.5s252.31,65.15,322.47,95.5Z"/>
        <circle class="cls-12" cx="1256.82" cy="1690.36" r="130.25"/>
        <path class="cls-11" d="m1183.99,1737.23c13.71,26.22,41.18,44.11,72.83,44.11s59.12-17.89,72.83-44.11"/>
        <circle cx="1256.82" cy="1690.36" r="61.63"/>
      </g>
      <path d="m1256.82,1659.28c162.85,0,252.31,65.15,322.47,95.5-70.16,30.35-159.61,80.59-322.47,80.59s-252.31-50.24-322.47-80.59c70.16-30.35,159.61-95.5,322.47-95.5m0-14.91c-59.6,0-114.78,8.42-168.68,25.74-46.32,14.88-83.5,33.59-116.3,50.09-15.41,7.75-29.96,15.08-43.41,20.89l-31.63,13.68,31.63,13.68c8.18,3.54,16.62,7.35,25.56,11.38,34.01,15.35,72.56,32.76,121.54,46.58,56.85,16.05,116.15,23.85,181.29,23.85s124.44-7.8,181.29-23.85c48.97-13.82,87.52-31.23,121.54-46.58,8.94-4.03,17.37-7.84,25.56-11.38l31.63-13.68-31.63-13.68c-13.44-5.82-28-13.14-43.41-20.89-32.8-16.5-69.98-35.21-116.3-50.09-53.9-17.32-109.07-25.74-168.68-25.74h0Z"/>
    </g>
    <g id="Eye-4" data-name="Eye">
      <g class="cls-25">
        <path class="cls-18" d="m745.62,1958.05c-43.7,18.9-99.42,50.2-200.86,50.2s-157.16-31.29-200.86-50.2c43.7-18.9,99.42-59.48,200.86-59.48s157.16,40.58,200.86,59.48Z"/>
        <circle class="cls-9" cx="544.77" cy="1917.93" r="81.13"/>
        <path class="cls-13" d="m499.4,1947.12c8.54,16.33,25.65,27.48,45.37,27.48s36.82-11.14,45.37-27.48"/>
        <circle cx="544.77" cy="1917.93" r="38.39"/>
      </g>
      <path d="m544.77,1898.56c101.44,0,157.16,40.58,200.86,59.48-43.7,18.9-99.42,50.2-200.86,50.2s-157.16-31.29-200.86-50.2c43.7-18.91,99.42-59.48,200.86-59.48m0-9.29c-83.63,0-137.89,27.3-177.51,47.23-9.6,4.83-18.66,9.39-27.04,13.01l-19.7,8.52,19.7,8.52c5.1,2.21,10.36,4.58,15.92,7.09,21.19,9.56,45.2,20.4,75.7,29.01,35.41,10,72.35,14.85,112.92,14.85s77.51-4.86,112.92-14.85c30.5-8.61,54.52-19.45,75.7-29.01,5.57-2.51,10.82-4.89,15.92-7.09l19.7-8.52-19.7-8.52c-8.37-3.62-17.44-8.18-27.04-13.01-39.62-19.93-93.88-47.23-177.51-47.23h0Z"/>
    </g>
    <g id="Eye-5" data-name="Eye">
      <g class="cls-23">
        <path class="cls-18" d="m1673.93,1354.88c-38.16,16.51-86.81,43.83-175.39,43.83s-137.23-27.32-175.39-43.83c38.16-16.51,86.81-51.94,175.39-51.94s137.23,35.43,175.39,51.94Z"/>
        <circle class="cls-8" cx="1498.54" cy="1319.85" r="70.85"/>
        <path class="cls-14" d="m1458.92,1345.34c7.46,14.26,22.4,23.99,39.61,23.99s32.15-9.73,39.61-23.99"/>
        <circle cx="1498.54" cy="1319.85" r="33.52"/>
      </g>
      <path d="m1498.54,1302.94c88.58,0,137.23,35.43,175.39,51.94-38.16,16.51-86.81,43.83-175.39,43.83s-137.23-27.32-175.39-43.83c38.16-16.51,86.81-51.94,175.39-51.94m0-8.11c-73.03,0-120.41,23.84-155,41.25-8.38,4.22-16.3,8.2-23.61,11.36l-17.2,7.44,17.2,7.44c4.45,1.93,9.04,4,13.9,6.19,35.81,16.17,84.86,38.31,164.71,38.31s128.9-22.14,164.71-38.31c4.86-2.19,9.45-4.27,13.9-6.19l17.2-7.44-17.2-7.44c-7.31-3.16-15.23-7.15-23.61-11.36-34.59-17.41-81.97-41.25-155-41.25h0Z"/>
    </g>
    <g id="Eye-6" data-name="Eye">
      <g class="cls-26">
        <path class="cls-18" d="m1862.33,578.66c-58.78,25.43-133.73,67.52-270.17,67.52s-211.39-42.09-270.17-67.52c58.78-25.43,133.73-80.01,270.17-80.01s211.39,54.58,270.17,80.01Z"/>
        <circle class="cls-5" cx="1592.16" cy="524.7" r="109.13"/>
        <path class="cls-2" d="m1531.14,563.96c11.49,21.97,34.5,36.96,61.02,36.96s49.53-14.99,61.02-36.96"/>
        <circle cx="1592.16" cy="524.7" r="51.63"/>
      </g>
      <path d="m1592.16,498.65c136.44,0,211.39,54.58,270.17,80.01-58.78,25.43-133.73,67.52-270.17,67.52s-211.39-42.09-270.17-67.52c58.78-25.43,133.73-80.01,270.17-80.01m0-12.49c-49.94,0-96.16,7.05-141.32,21.56-38.81,12.47-69.96,28.14-97.44,41.97-12.91,6.5-25.1,12.63-36.37,17.5l-26.5,11.46,26.5,11.46c6.86,2.97,13.93,6.16,21.41,9.54,28.5,12.86,60.79,27.44,101.82,39.03,47.63,13.44,97.31,19.98,151.89,19.98s104.26-6.54,151.89-19.98c41.03-11.58,73.33-26.16,101.82-39.03,7.49-3.38,14.56-6.57,21.41-9.54l26.5-11.46-26.5-11.46c-11.26-4.87-23.46-11.01-36.37-17.5-27.48-13.83-58.63-29.5-97.44-41.97-45.16-14.51-91.39-21.56-141.32-21.56h0Z"/>
    </g>
    <g id="Eye-7" data-name="Eye">
      <g class="cls-20">
        <path class="cls-18" d="m654.21,1475.26c-65.07,28.15-148.04,74.75-299.1,74.75s-234.02-46.6-299.1-74.75c65.07-28.15,148.04-88.58,299.1-88.58s234.02,60.42,299.1,88.58Z"/>
        <circle class="cls-1" cx="355.12" cy="1415.52" r="120.81"/>
        <path class="cls-16" d="m287.56,1458.99c12.72,24.32,38.2,40.91,67.55,40.91s54.83-16.59,67.55-40.91"/>
        <circle cx="355.12" cy="1415.52" r="57.16"/>
      </g>
      <path d="m355.12,1386.68c151.05,0,234.02,60.42,299.1,88.58-65.07,28.15-148.04,74.75-299.1,74.75s-234.02-46.6-299.1-74.75c65.07-28.15,148.04-88.58,299.1-88.58m0-13.83c-55.28,0-106.46,7.81-156.45,23.87-42.96,13.8-77.45,31.16-107.87,46.46-14.29,7.19-27.79,13.98-40.26,19.38l-29.33,12.69,29.33,12.69c7.59,3.28,15.42,6.82,23.71,10.56,31.55,14.24,67.3,30.38,112.73,43.21,52.73,14.88,107.73,22.12,168.15,22.12s115.42-7.24,168.15-22.12c45.42-12.82,81.18-28.96,112.73-43.21,8.29-3.74,16.12-7.28,23.71-10.56l29.33-12.69-29.33-12.69c-12.47-5.39-25.97-12.19-40.26-19.38-30.43-15.31-64.91-32.66-107.87-46.46-49.99-16.06-101.17-23.87-156.45-23.87h0Z"/>
    </g>
    <g id="Eye-8" data-name="Eye">
      <g class="cls-21">
        <path class="cls-18" d="m382.96,459.6c-39.37,17.03-89.56,45.22-180.95,45.22s-141.58-28.19-180.95-45.22c39.37-17.03,89.56-53.59,180.95-53.59s141.58,36.56,180.95,53.59Z"/>
        <circle class="cls-15" cx="202.02" cy="423.46" r="73.09"/>
        <path class="cls-7" d="m161.15,449.76c7.7,14.71,23.11,24.75,40.87,24.75s33.17-10.04,40.87-24.75"/>
        <circle cx="202.02" cy="423.46" r="34.58"/>
      </g>
      <path d="m202.02,406.01c91.38,0,141.58,36.56,180.95,53.59-39.37,17.03-89.56,45.22-180.95,45.22s-141.58-28.19-180.95-45.22c39.37-17.03,89.56-53.59,180.95-53.59m0-8.37c-75.34,0-124.22,24.59-159.91,42.55-8.65,4.35-16.81,8.46-24.36,11.72l-17.75,7.68,17.75,7.68c4.59,1.99,9.33,4.12,14.34,6.39,36.95,16.68,87.54,39.52,169.93,39.52s132.98-22.84,169.93-39.52c5.01-2.26,9.75-4.4,14.34-6.39l17.75-7.68-17.75-7.68c-7.54-3.26-15.71-7.37-24.36-11.72-35.69-17.96-84.57-42.55-159.91-42.55h0Z"/>
    </g>
  </g>
</svg>